# xmcd CD database file
#
# Track frame offsets:
#	150
#	20420
#	36185
#	54750
#	72510
#	105475
#	127850
#	146220
#	160995
#
# Disc length: 2373 seconds
#
# Revision: 0
# Processed by: cddbd v1.5.1PL2 Copyright (c) Steve Scherf et al.
# Submitted via: CDex 1.51
#
DISCID=75094309
DTITLE=Noel Webb - Storm Dance
DYEAR=1996
DGENRE=Jazz
TTITLE0=Wild Moon Night
TTITLE1=Jessica´s Song
TTITLE2=In Flight
TTITLE3=Twilight
TTITLE4=The Baby Dance
TTITLE5=Morning Light
TTITLE6=Second Born
TTITLE7=Tropical Tides
TTITLE8=Touched By Lightning
EXTD=YEAR: 1996
EXTT0=
EXTT1=
EXTT2=
EXTT3=
EXTT4=
EXTT5=
EXTT6=
EXTT7=
EXTT8=
PLAYORDER=
